<?xml version="1.0" encoding="UTF-8" standalone="no"?><!DOCTYPE svg PUBLIC "-//W3C//DTD SVG 1.1//EN" "http://www.w3.org/Graphics/SVG/1.1/DTD/svg11.dtd"><svg width="100%" height="100%" viewBox="0 0 375 667" version="1.1" xmlns="http://www.w3.org/2000/svg" xmlns:xlink="http://www.w3.org/1999/xlink" xml:space="preserve" xmlns:serif="http://www.serif.com/" style="fill-rule:evenodd;clip-rule:evenodd;stroke-linejoin:round;stroke-miterlimit:1.41421;"><rect id="main-screen" x="0" y="0" width="375" height="667" style="fill:none;"/><clipPath id="_clip1"><rect id="main-screen1" serif:id="main-screen" x="0" y="0" width="375" height="667"/></clipPath><g clip-path="url(#_clip1)"><g><rect x="0" y="587" width="375" height="30" style="fill:#f2f2f2;"/><rect x="0" y="617" width="115.719" height="50" style="fill:#8c8c8c;"/><text x="26.211px" y="645.965px" style="font-family:'SegoeUI', 'Segoe UI', sans-serif;font-size:16px;fill:#fff;">View Log</text><rect x="115.719" y="617" width="259.281" height="50" style="fill:#8c8c8c;"/><rect x="115.719" y="617" width="186.249" height="50" style="fill:#595959;"/><text x="206.793px" y="647.828px" style="font-family:'SegoeUI', 'Segoe UI', sans-serif;font-size:16px;fill:#fff;">End R<tspan x="246.848px 256.223px " y="647.828px 647.828px ">ou</tspan>nd</text><rect x="113.777" y="617" width="3.884" height="50" style="fill:#fff;"/></g><text x="9.68px" y="605.855px" style="font-family:'SegoeUI', 'Segoe UI', sans-serif;font-size:16px;">T<tspan x="16.266px 24.406px " y="605.855px 605.855px ">ap</tspan> on an NPC to<tspan x="132.602px " y="605.855px "> </tspan>talk to<tspan x="181.555px " y="605.855px "> </tspan>them</text><g id="NPC"><rect x="0" y="0" width="93.75" height="117.4" style="fill:#d9d9d9;"/><rect x="0" y="0" width="93.75" height="93.4" style="fill:#999;"/><text x="8.908px" y="109.72px" style="font-family:'SegoeUI', 'Segoe UI', sans-serif;font-size:14px;">Hildegaard<tspan x="76.796px " y="109.72px ">e</tspan></text><path d="M23.377,80.929c-10.883,-7.489 -18.024,-20.032 -18.024,-34.229c0,-22.917 18.605,-41.522 41.522,-41.522c22.917,0 41.522,18.605 41.522,41.522c0,14.197 -7.141,26.74 -18.024,34.229l13.184,12.471l-73.364,0l13.184,-12.471Z" style="fill:#e6e6e6;"/></g><g id="NPC1" serif:id="NPC"><rect x="0" y="117.4" width="93.75" height="117.4" style="fill:#d9d9d9;"/><rect x="0" y="117.4" width="93.75" height="93.4" style="fill:#999;"/><text x="8.908px" y="227.12px" style="font-family:'SegoeUI', 'Segoe UI', sans-serif;font-size:14px;">Hildegaard<tspan x="76.796px " y="227.12px ">e</tspan></text><path d="M23.377,198.329c-10.883,-7.489 -18.024,-20.032 -18.024,-34.229c0,-22.917 18.605,-41.522 41.522,-41.522c22.917,0 41.522,18.605 41.522,41.522c0,14.197 -7.141,26.74 -18.024,34.229l13.184,12.471l-73.364,0l13.184,-12.471Z" style="fill:#e6e6e6;"/></g><g id="NPC2" serif:id="NPC"><rect x="0" y="234.8" width="93.75" height="117.4" style="fill:#d9d9d9;"/><rect x="0" y="234.8" width="93.75" height="93.4" style="fill:#999;"/><text x="8.908px" y="344.52px" style="font-family:'SegoeUI', 'Segoe UI', sans-serif;font-size:14px;">Hildegaard<tspan x="76.796px " y="344.52px ">e</tspan></text><path d="M23.377,315.729c-10.883,-7.489 -18.024,-20.032 -18.024,-34.229c0,-22.917 18.605,-41.522 41.522,-41.522c22.917,0 41.522,18.605 41.522,41.522c0,14.197 -7.141,26.74 -18.024,34.229l13.184,12.471l-73.364,0l13.184,-12.471Z" style="fill:#e6e6e6;"/></g><g id="NPC3" serif:id="NPC"><rect x="0" y="352.2" width="93.75" height="117.4" style="fill:#d9d9d9;"/><rect x="0" y="352.2" width="93.75" height="93.4" style="fill:#999;"/><text x="8.908px" y="461.92px" style="font-family:'SegoeUI', 'Segoe UI', sans-serif;font-size:14px;">Hildegaard<tspan x="76.796px " y="461.92px ">e</tspan></text><path d="M23.377,433.129c-10.883,-7.489 -18.024,-20.032 -18.024,-34.229c0,-22.917 18.605,-41.522 41.522,-41.522c22.917,0 41.522,18.605 41.522,41.522c0,14.197 -7.141,26.74 -18.024,34.229l13.184,12.471l-73.364,0l13.184,-12.471Z" style="fill:#e6e6e6;"/></g><g id="NPC4" serif:id="NPC"><rect x="0" y="469.6" width="93.75" height="117.4" style="fill:#d9d9d9;"/><rect x="0" y="469.6" width="93.75" height="93.4" style="fill:#999;"/><text x="8.908px" y="579.32px" style="font-family:'SegoeUI', 'Segoe UI', sans-serif;font-size:14px;">Hildegaard<tspan x="76.796px " y="579.32px ">e</tspan></text><path d="M23.377,550.529c-10.883,-7.489 -18.024,-20.032 -18.024,-34.229c0,-22.917 18.605,-41.522 41.522,-41.522c22.917,0 41.522,18.605 41.522,41.522c0,14.197 -7.141,26.74 -18.024,34.229l13.184,12.471l-73.364,0l13.184,-12.471Z" style="fill:#e6e6e6;"/></g><g id="NPC5" serif:id="NPC"><rect x="93.75" y="0" width="93.75" height="117.4" style="fill:#d9d9d9;"/><rect x="93.75" y="0" width="93.75" height="93.4" style="fill:#999;"/><text x="102.658px" y="109.72px" style="font-family:'SegoeUI', 'Segoe UI', sans-serif;font-size:14px;">Hildegaard<tspan x="170.546px " y="109.72px ">e</tspan></text><path d="M117.127,80.929c-10.883,-7.489 -18.024,-20.032 -18.024,-34.229c0,-22.917 18.605,-41.522 41.522,-41.522c22.917,0 41.522,18.605 41.522,41.522c0,14.197 -7.141,26.74 -18.024,34.229l13.184,12.471l-73.364,0l13.184,-12.471Z" style="fill:#e6e6e6;"/></g><g id="NPC6" serif:id="NPC"><rect x="93.75" y="117.4" width="93.75" height="117.4" style="fill:#d9d9d9;"/><rect x="93.75" y="117.4" width="93.75" height="93.4" style="fill:#999;"/><text x="102.658px" y="227.12px" style="font-family:'SegoeUI', 'Segoe UI', sans-serif;font-size:14px;">Hildegaard<tspan x="170.546px " y="227.12px ">e</tspan></text><path d="M117.127,198.329c-10.883,-7.489 -18.024,-20.032 -18.024,-34.229c0,-22.917 18.605,-41.522 41.522,-41.522c22.917,0 41.522,18.605 41.522,41.522c0,14.197 -7.141,26.74 -18.024,34.229l13.184,12.471l-73.364,0l13.184,-12.471Z" style="fill:#e6e6e6;"/></g><g id="NPC7" serif:id="NPC"><rect x="93.75" y="234.8" width="93.75" height="117.4" style="fill:#d9d9d9;"/><rect x="93.75" y="234.8" width="93.75" height="93.4" style="fill:#999;"/><text x="102.658px" y="344.52px" style="font-family:'SegoeUI', 'Segoe UI', sans-serif;font-size:14px;">Hildegaard<tspan x="170.546px " y="344.52px ">e</tspan></text><path d="M117.127,315.729c-10.883,-7.489 -18.024,-20.032 -18.024,-34.229c0,-22.917 18.605,-41.522 41.522,-41.522c22.917,0 41.522,18.605 41.522,41.522c0,14.197 -7.141,26.74 -18.024,34.229l13.184,12.471l-73.364,0l13.184,-12.471Z" style="fill:#e6e6e6;"/></g><g id="NPC8" serif:id="NPC"><rect x="93.75" y="352.2" width="93.75" height="117.4" style="fill:#d9d9d9;"/><rect x="93.75" y="352.2" width="93.75" height="93.4" style="fill:#999;"/><text x="102.658px" y="461.92px" style="font-family:'SegoeUI', 'Segoe UI', sans-serif;font-size:14px;">Hildegaard<tspan x="170.546px " y="461.92px ">e</tspan></text><path d="M117.127,433.129c-10.883,-7.489 -18.024,-20.032 -18.024,-34.229c0,-22.917 18.605,-41.522 41.522,-41.522c22.917,0 41.522,18.605 41.522,41.522c0,14.197 -7.141,26.74 -18.024,34.229l13.184,12.471l-73.364,0l13.184,-12.471Z" style="fill:#e6e6e6;"/></g><g id="NPC9" serif:id="NPC"><rect x="93.75" y="469.6" width="93.75" height="117.4" style="fill:#d9d9d9;"/><rect x="93.75" y="469.6" width="93.75" height="93.4" style="fill:#999;"/><text x="102.658px" y="579.32px" style="font-family:'SegoeUI', 'Segoe UI', sans-serif;font-size:14px;">Hildegaard<tspan x="170.546px " y="579.32px ">e</tspan></text><path d="M117.127,550.529c-10.883,-7.489 -18.024,-20.032 -18.024,-34.229c0,-22.917 18.605,-41.522 41.522,-41.522c22.917,0 41.522,18.605 41.522,41.522c0,14.197 -7.141,26.74 -18.024,34.229l13.184,12.471l-73.364,0l13.184,-12.471Z" style="fill:#e6e6e6;"/></g><g id="NPC10" serif:id="NPC"><rect x="187.5" y="0" width="93.75" height="117.4" style="fill:#d9d9d9;"/><rect x="187.5" y="0" width="93.75" height="93.4" style="fill:#999;"/><text x="196.408px" y="109.72px" style="font-family:'SegoeUI', 'Segoe UI', sans-serif;font-size:14px;">Hildegaard<tspan x="264.296px " y="109.72px ">e</tspan></text><path d="M210.877,80.929c-10.883,-7.489 -18.024,-20.032 -18.024,-34.229c0,-22.917 18.605,-41.522 41.522,-41.522c22.917,0 41.522,18.605 41.522,41.522c0,14.197 -7.141,26.74 -18.024,34.229l13.184,12.471l-73.364,0l13.184,-12.471Z" style="fill:#e6e6e6;"/></g><g id="NPC11" serif:id="NPC"><rect x="187.5" y="117.4" width="93.75" height="117.4" style="fill:#d9d9d9;"/><rect x="187.5" y="117.4" width="93.75" height="93.4" style="fill:#999;"/><text x="196.408px" y="227.12px" style="font-family:'SegoeUI', 'Segoe UI', sans-serif;font-size:14px;">Hildegaard<tspan x="264.296px " y="227.12px ">e</tspan></text><path d="M210.877,198.329c-10.883,-7.489 -18.024,-20.032 -18.024,-34.229c0,-22.917 18.605,-41.522 41.522,-41.522c22.917,0 41.522,18.605 41.522,41.522c0,14.197 -7.141,26.74 -18.024,34.229l13.184,12.471l-73.364,0l13.184,-12.471Z" style="fill:#e6e6e6;"/></g><g id="NPC12" serif:id="NPC"><rect x="187.5" y="234.8" width="93.75" height="117.4" style="fill:#d9d9d9;"/><rect x="187.5" y="234.8" width="93.75" height="93.4" style="fill:#999;"/><text x="196.408px" y="344.52px" style="font-family:'SegoeUI', 'Segoe UI', sans-serif;font-size:14px;">Hildegaard<tspan x="264.296px " y="344.52px ">e</tspan></text><path d="M210.877,315.729c-10.883,-7.489 -18.024,-20.032 -18.024,-34.229c0,-22.917 18.605,-41.522 41.522,-41.522c22.917,0 41.522,18.605 41.522,41.522c0,14.197 -7.141,26.74 -18.024,34.229l13.184,12.471l-73.364,0l13.184,-12.471Z" style="fill:#e6e6e6;"/></g><g id="NPC13" serif:id="NPC"><rect x="187.5" y="352.2" width="93.75" height="117.4" style="fill:#d9d9d9;"/><rect x="187.5" y="352.2" width="93.75" height="93.4" style="fill:#999;"/><text x="196.408px" y="461.92px" style="font-family:'SegoeUI', 'Segoe UI', sans-serif;font-size:14px;">Hildegaard<tspan x="264.296px " y="461.92px ">e</tspan></text><path d="M210.877,433.129c-10.883,-7.489 -18.024,-20.032 -18.024,-34.229c0,-22.917 18.605,-41.522 41.522,-41.522c22.917,0 41.522,18.605 41.522,41.522c0,14.197 -7.141,26.74 -18.024,34.229l13.184,12.471l-73.364,0l13.184,-12.471Z" style="fill:#e6e6e6;"/></g><g id="NPC14" serif:id="NPC"><rect x="187.5" y="469.6" width="93.75" height="117.4" style="fill:#d9d9d9;"/><rect x="187.5" y="469.6" width="93.75" height="93.4" style="fill:#999;"/><text x="196.408px" y="579.32px" style="font-family:'SegoeUI', 'Segoe UI', sans-serif;font-size:14px;">Hildegaard<tspan x="264.296px " y="579.32px ">e</tspan></text><path d="M210.877,550.529c-10.883,-7.489 -18.024,-20.032 -18.024,-34.229c0,-22.917 18.605,-41.522 41.522,-41.522c22.917,0 41.522,18.605 41.522,41.522c0,14.197 -7.141,26.74 -18.024,34.229l13.184,12.471l-73.364,0l13.184,-12.471Z" style="fill:#e6e6e6;"/></g><g id="NPC15" serif:id="NPC"><rect x="281.25" y="0" width="93.75" height="117.4" style="fill:#d9d9d9;"/><rect x="281.25" y="0" width="93.75" height="93.4" style="fill:#999;"/><text x="290.158px" y="109.72px" style="font-family:'SegoeUI', 'Segoe UI', sans-serif;font-size:14px;">Hildegaard<tspan x="358.046px " y="109.72px ">e</tspan></text><path d="M304.627,80.929c-10.883,-7.489 -18.024,-20.032 -18.024,-34.229c0,-22.917 18.605,-41.522 41.522,-41.522c22.917,0 41.522,18.605 41.522,41.522c0,14.197 -7.141,26.74 -18.024,34.229l13.184,12.471l-73.364,0l13.184,-12.471Z" style="fill:#e6e6e6;"/></g><g id="NPC16" serif:id="NPC"><rect x="281.25" y="117.4" width="93.75" height="117.4" style="fill:#d9d9d9;"/><rect x="281.25" y="117.4" width="93.75" height="93.4" style="fill:#999;"/><text x="290.158px" y="227.12px" style="font-family:'SegoeUI', 'Segoe UI', sans-serif;font-size:14px;">Hildegaard<tspan x="358.046px " y="227.12px ">e</tspan></text><path d="M304.627,198.329c-10.883,-7.489 -18.024,-20.032 -18.024,-34.229c0,-22.917 18.605,-41.522 41.522,-41.522c22.917,0 41.522,18.605 41.522,41.522c0,14.197 -7.141,26.74 -18.024,34.229l13.184,12.471l-73.364,0l13.184,-12.471Z" style="fill:#e6e6e6;"/></g><g id="NPC17" serif:id="NPC"><rect x="281.25" y="234.8" width="93.75" height="117.4" style="fill:#d9d9d9;"/><rect x="281.25" y="234.8" width="93.75" height="93.4" style="fill:#999;"/><text x="290.158px" y="344.52px" style="font-family:'SegoeUI', 'Segoe UI', sans-serif;font-size:14px;">Hildegaard<tspan x="358.046px " y="344.52px ">e</tspan></text><path d="M304.627,315.729c-10.883,-7.489 -18.024,-20.032 -18.024,-34.229c0,-22.917 18.605,-41.522 41.522,-41.522c22.917,0 41.522,18.605 41.522,41.522c0,14.197 -7.141,26.74 -18.024,34.229l13.184,12.471l-73.364,0l13.184,-12.471Z" style="fill:#e6e6e6;"/></g><g id="NPC18" serif:id="NPC"><rect x="281.25" y="352.2" width="93.75" height="117.4" style="fill:#d9d9d9;"/><rect x="281.25" y="352.2" width="93.75" height="93.4" style="fill:#999;"/><text x="290.158px" y="461.92px" style="font-family:'SegoeUI', 'Segoe UI', sans-serif;font-size:14px;">Hildegaard<tspan x="358.046px " y="461.92px ">e</tspan></text><path d="M304.627,433.129c-10.883,-7.489 -18.024,-20.032 -18.024,-34.229c0,-22.917 18.605,-41.522 41.522,-41.522c22.917,0 41.522,18.605 41.522,41.522c0,14.197 -7.141,26.74 -18.024,34.229l13.184,12.471l-73.364,0l13.184,-12.471Z" style="fill:#e6e6e6;"/></g><g id="NPC19" serif:id="NPC"><rect x="281.25" y="469.6" width="93.75" height="117.4" style="fill:#d9d9d9;"/><rect x="281.25" y="469.6" width="93.75" height="93.4" style="fill:#999;"/><text x="290.158px" y="579.32px" style="font-family:'SegoeUI', 'Segoe UI', sans-serif;font-size:14px;">Hildegaard<tspan x="358.046px " y="579.32px ">e</tspan></text><path d="M304.627,550.529c-10.883,-7.489 -18.024,-20.032 -18.024,-34.229c0,-22.917 18.605,-41.522 41.522,-41.522c22.917,0 41.522,18.605 41.522,41.522c0,14.197 -7.141,26.74 -18.024,34.229l13.184,12.471l-73.364,0l13.184,-12.471Z" style="fill:#e6e6e6;"/></g><rect x="93.342" y="351.972" width="93.333" height="117.628" style="fill-opacity:0.4;"/><g><circle cx="140.009" cy="398.786" r="30.88"/><text x="123.735px" y="402.386px" style="font-family:'SegoeUI', 'Segoe UI', sans-serif;font-size:12px;fill:#fff;">(dead)</text></g></g></svg>