<?xml version="1.0" encoding="UTF-8" standalone="no"?><!DOCTYPE svg PUBLIC "-//W3C//DTD SVG 1.1//EN" "http://www.w3.org/Graphics/SVG/1.1/DTD/svg11.dtd"><svg width="100%" height="100%" viewBox="0 0 375 667" version="1.1" xmlns="http://www.w3.org/2000/svg" xmlns:xlink="http://www.w3.org/1999/xlink" xml:space="preserve" xmlns:serif="http://www.serif.com/" style="fill-rule:evenodd;clip-rule:evenodd;stroke-linejoin:round;stroke-miterlimit:1.41421;"><rect id="interaction-screen" x="0" y="0" width="375" height="667" style="fill:none;"/><clipPath id="_clip1"><rect x="0" y="0" width="375" height="667"/></clipPath><g clip-path="url(#_clip1)"><g><rect x="0" y="587" width="375" height="30" style="fill:#f2f2f2;"/><rect x="0" y="617" width="115.719" height="50" style="fill:#8c8c8c;"/><text x="26.211px" y="645.965px" style="font-family:'SegoeUI', 'Segoe UI', sans-serif;font-size:16px;fill:#fff;">View Log</text><rect x="115.719" y="617" width="259.281" height="50" style="fill:#8c8c8c;"/><rect x="115.719" y="617" width="186.249" height="50" style="fill:#595959;"/><text x="206.793px" y="647.828px" style="font-family:'SegoeUI', 'Segoe UI', sans-serif;font-size:16px;fill:#fff;">End R<tspan x="246.848px 256.223px " y="647.828px 647.828px ">ou</tspan>nd</text><rect x="113.777" y="617" width="3.884" height="50" style="fill:#fff;"/></g><text x="9.68px" y="605.855px" style="font-family:'SegoeUI', 'Segoe UI', sans-serif;font-size:16px;">T<tspan x="16.266px 24.406px " y="605.855px 605.855px ">al</tspan>k to<tspan x="55.414px " y="605.855px "> </tspan>Hildegaard<tspan x="137.383px " y="605.855px ">e</tspan> to<tspan x="164.93px " y="605.855px "> </tspan>ﬁnd out what she knows.</text><rect x="0" y="0" width="375" height="587"/><rect x="0" y="196.1" width="281.25" height="390.9" style="fill:#fff;"/><rect x="0" y="0" width="375" height="137.095" style="fill:#fff;"/><g transform="matrix(1,0,0,1,-401,9.98084)"><text x="411px" y="11.461px" style="font-family:'ArialMT', 'Arial', sans-serif;font-size:16px;">I think that</text><text x="489.266px" y="11.461px" style="font-family:'Arial-BoldMT', 'Arial', sans-serif;font-weight:700;font-size:16px;fill:#f00;">Robert</text><text x="545.266px" y="11.461px" style="font-family:'ArialMT', 'Arial', sans-serif;font-size:16px;">did it. He&apos;s been acting very</text><text x="411px" y="27.984px" style="font-family:'ArialMT', 'Arial', sans-serif;font-size:16px;">shady ever since we got here. I&apos;ve never seen</text><text x="411px" y="44.508px" style="font-family:'ArialMT', 'Arial', sans-serif;font-size:16px;">him like this.</text></g><g><rect x="14.906" y="216.148" width="246.3" height="50" style="fill:#737373;"/><text x="106.388px" y="245.797px" style="font-family:'SegoeUI', 'Segoe UI', sans-serif;font-size:16px;fill:#fff;">T<tspan x="112.974px 121.115px " y="245.797px 245.797px ">al</tspan>k (0/4)</text></g><g><rect x="14.906" y="397" width="246.3" height="50" style="fill:#737373;"/><text x="116.127px" y="426.648px" style="font-family:'SegoeUI', 'Segoe UI', sans-serif;font-size:16px;fill:#fff;">Flatte<tspan x="155.166px " y="426.648px ">r</tspan></text></g><g><rect x="14.906" y="276.148" width="246.3" height="50" style="fill:#737373;"/><text x="58.681px" y="305.797px" style="font-family:'SegoeUI', 'Segoe UI', sans-serif;font-size:16px;fill:#fff;">Who are<tspan x="118.509px " y="305.797px "> </tspan>you blaming?</text></g><g><rect x="14.906" y="457" width="246.3" height="50" style="fill:#737373;"/><text x="71.076px" y="486.648px" style="font-family:'SegoeUI', 'Segoe UI', sans-serif;font-size:16px;fill:#fff;">Connand At<tspan x="155.209px 160.63px 168.998px " y="486.648px 486.648px 486.648px ">ten</tspan>tion</text></g><g><rect x="14.906" y="336.148" width="246.3" height="50" style="fill:#737373;"/><text x="82.834px" y="365.797px" style="font-family:'SegoeUI', 'Segoe UI', sans-serif;font-size:16px;fill:#fff;">Ask About Luna</text></g><g><rect x="14.906" y="517" width="246.3" height="50" style="fill:#737373;"/><text x="119.271px" y="546.648px" style="font-family:'SegoeUI', 'Segoe UI', sans-serif;font-size:16px;fill:#fff;">Close</text></g><g><g id="NPC"><rect x="281.25" y="469.6" width="93.75" height="117.4" style="fill:#d9d9d9;"/><rect x="281.25" y="469.6" width="93.75" height="93.4" style="fill:#999;"/><text x="290.158px" y="579.32px" style="font-family:'SegoeUI', 'Segoe UI', sans-serif;font-size:14px;">Hildegaard<tspan x="358.046px " y="579.32px ">e</tspan></text><circle cx="328.125" cy="516.3" r="41.522" style="fill:#e6e6e6;"/><path d="M291.443,563l36.682,-34.7l36.682,34.7l-73.364,0Z" style="fill:#e6e6e6;"/></g><circle cx="304.342" cy="449.802" r="9.38" style="fill:#fff;"/><circle cx="328.092" cy="449.802" r="9.38" style="fill:#fff;"/><circle cx="352.592" cy="449.802" r="9.38" style="fill:#fff;"/><text x="310.311px" y="433.097px" style="font-family:'SegoeUI', 'Segoe UI', sans-serif;font-size:12px;fill:#fff;">(icons)</text></g></g></svg>