<?xml version="1.0" encoding="UTF-8" standalone="no"?><!DOCTYPE svg PUBLIC "-//W3C//DTD SVG 1.1//EN" "http://www.w3.org/Graphics/SVG/1.1/DTD/svg11.dtd"><svg width="100%" height="100%" viewBox="0 0 375 667" version="1.1" xmlns="http://www.w3.org/2000/svg" xmlns:xlink="http://www.w3.org/1999/xlink" xml:space="preserve" xmlns:serif="http://www.serif.com/" style="fill-rule:evenodd;clip-rule:evenodd;stroke-linejoin:round;stroke-miterlimit:1.41421;"><rect id="log-screen" x="0" y="0" width="375" height="667" style="fill:none;"/><clipPath id="_clip1"><rect x="0" y="0" width="375" height="667"/></clipPath><g clip-path="url(#_clip1)"><g><g><g><rect x="12.75" y="531.898" width="70.275" height="70.013" style="fill:#999;"/><circle cx="47.887" cy="566.905" r="31.125" style="fill:#e6e6e6;"/><path d="M20.391,601.911l27.496,-26.011l27.497,26.011l-54.993,0Z" style="fill:#e6e6e6;"/></g><g transform="matrix(1,0,0,1,-314.498,557.097)"><text x="411px" y="11.461px" style="font-family:'ArialMT', 'Arial', sans-serif;font-size:16px;">I think that</text><text x="489.266px" y="11.461px" style="font-family:'Arial-BoldMT', 'Arial', sans-serif;font-weight:700;font-size:16px;fill:#f00;">Robert</text><text x="545.266px" y="11.461px" style="font-family:'ArialMT', 'Arial', sans-serif;font-size:16px;">did it. He&apos;s</text><text x="411px" y="27.984px" style="font-family:'ArialMT', 'Arial', sans-serif;font-size:16px;">been acting very shady ever</text><text x="411px" y="44.508px" style="font-family:'ArialMT', 'Arial', sans-serif;font-size:16px;">since we got here. I&apos;ve never</text><text x="411px" y="61.031px" style="font-family:'ArialMT', 'Arial', sans-serif;font-size:16px;">seen him like this.</text></g><text x="95.22px" y="548.339px" style="font-family:'SegoeUI-Bold', 'Segoe UI', sans-serif;font-weight:700;font-size:16px;">Hildegaarde:</text></g><g transform="matrix(1,0,0,1,-314.498,557.097)"><text x="411px" y="11.461px" style="font-family:'ArialMT', 'Arial', sans-serif;font-size:16px;">I think that</text><text x="489.266px" y="11.461px" style="font-family:'Arial-BoldMT', 'Arial', sans-serif;font-weight:700;font-size:16px;fill:#f00;">Robert</text><text x="545.266px" y="11.461px" style="font-family:'ArialMT', 'Arial', sans-serif;font-size:16px;">did it. He&apos;s</text><text x="411px" y="27.984px" style="font-family:'ArialMT', 'Arial', sans-serif;font-size:16px;">been acting very shady ever</text><text x="411px" y="44.508px" style="font-family:'ArialMT', 'Arial', sans-serif;font-size:16px;">since we got here. I&apos;ve never</text><text x="411px" y="61.031px" style="font-family:'ArialMT', 'Arial', sans-serif;font-size:16px;">seen him like this.</text></g><text x="95.22px" y="548.339px" style="font-family:'SegoeUI-Bold', 'Segoe UI', sans-serif;font-weight:700;font-size:16px;">Hildegaarde:</text></g><g><rect x="0" y="587" width="375" height="30" style="fill:#f2f2f2;"/><rect x="0" y="617" width="115.719" height="50" style="fill:#8c8c8c;"/><text x="26.211px" y="645.965px" style="font-family:'SegoeUI', 'Segoe UI', sans-serif;font-size:16px;fill:#fff;">View Log</text><rect x="115.719" y="617" width="259.281" height="50" style="fill:#8c8c8c;"/><rect x="115.719" y="617" width="186.249" height="50" style="fill:#595959;"/><text x="206.793px" y="647.828px" style="font-family:'SegoeUI', 'Segoe UI', sans-serif;font-size:16px;fill:#fff;">End R<tspan x="246.848px 256.223px " y="647.828px 647.828px ">ou</tspan>nd</text><rect x="113.777" y="617" width="3.884" height="50" style="fill:#fff;"/></g><text x="9.68px" y="605.855px" style="font-family:'SegoeUI', 'Segoe UI', sans-serif;font-size:16px;">Look over the clues yo<tspan x="167.852px 176.906px 180.586px " y="605.855px 605.855px 605.855px ">u&apos;v</tspan>e uncove<tspan x="251.906px 257.469px 265.836px " y="605.855px 605.855px 605.855px ">red</tspan>.</text><rect x="17.026" y="626.817" width="81.667" height="30.366" style="fill:#8c8c8c;"/><text x="23.926px" y="645.965px" style="font-family:'SegoeUI', 'Segoe UI', sans-serif;font-size:16px;fill:#fff;">Close Log</text><g><rect x="13.75" y="17.6" width="70.275" height="70.013" style="fill:#999;"/><circle cx="48.887" cy="52.606" r="31.125" style="fill:#e6e6e6;"/><path d="M21.391,87.613l27.496,-26.011l27.497,26.011l-54.993,0Z" style="fill:#e6e6e6;"/></g><g><g><g><rect x="13.75" y="17.6" width="70.275" height="70.013" style="fill:#999;"/><circle cx="48.887" cy="52.606" r="31.125" style="fill:#e6e6e6;"/><path d="M21.391,87.613l27.496,-26.011l27.497,26.011l-54.993,0Z" style="fill:#e6e6e6;"/></g><g transform="matrix(1,0,0,1,-313.498,42.7983)"><text x="411px" y="11.461px" style="font-family:'ArialMT', 'Arial', sans-serif;font-size:16px;">I think that</text><text x="489.266px" y="11.461px" style="font-family:'Arial-BoldMT', 'Arial', sans-serif;font-weight:700;font-size:16px;fill:#f00;">Robert</text><text x="545.266px" y="11.461px" style="font-family:'ArialMT', 'Arial', sans-serif;font-size:16px;">did it. He&apos;s</text><text x="411px" y="27.984px" style="font-family:'ArialMT', 'Arial', sans-serif;font-size:16px;">been acting very shady ever</text><text x="411px" y="44.508px" style="font-family:'ArialMT', 'Arial', sans-serif;font-size:16px;">since we got here. I&apos;ve never</text><text x="411px" y="61.031px" style="font-family:'ArialMT', 'Arial', sans-serif;font-size:16px;">seen him like this.</text></g><text x="96.22px" y="34.04px" style="font-family:'SegoeUI-Bold', 'Segoe UI', sans-serif;font-weight:700;font-size:16px;">Hildegaarde:</text></g><g transform="matrix(1,0,0,1,-313.498,42.7983)"><text x="411px" y="11.461px" style="font-family:'ArialMT', 'Arial', sans-serif;font-size:16px;">I think that</text><text x="489.266px" y="11.461px" style="font-family:'Arial-BoldMT', 'Arial', sans-serif;font-weight:700;font-size:16px;fill:#f00;">Robert</text><text x="545.266px" y="11.461px" style="font-family:'ArialMT', 'Arial', sans-serif;font-size:16px;">did it. He&apos;s</text><text x="411px" y="27.984px" style="font-family:'ArialMT', 'Arial', sans-serif;font-size:16px;">been acting very shady ever</text><text x="411px" y="44.508px" style="font-family:'ArialMT', 'Arial', sans-serif;font-size:16px;">since we got here. I&apos;ve never</text><text x="411px" y="61.031px" style="font-family:'ArialMT', 'Arial', sans-serif;font-size:16px;">seen him like this.</text></g><text x="96.22px" y="34.04px" style="font-family:'SegoeUI-Bold', 'Segoe UI', sans-serif;font-weight:700;font-size:16px;">Hildegaarde:</text></g><g><g><g><rect x="13.75" y="222.898" width="70.275" height="70.013" style="fill:#999;"/><circle cx="48.887" cy="257.905" r="31.125" style="fill:#e6e6e6;"/><path d="M21.391,292.911l27.496,-26.011l27.497,26.011l-54.993,0Z" style="fill:#e6e6e6;"/></g><g transform="matrix(1,0,0,1,-313.498,248.097)"><text x="411px" y="11.461px" style="font-family:'ArialMT', 'Arial', sans-serif;font-size:16px;">I think that</text><text x="489.266px" y="11.461px" style="font-family:'Arial-BoldMT', 'Arial', sans-serif;font-weight:700;font-size:16px;fill:#f00;">Robert</text><text x="545.266px" y="11.461px" style="font-family:'ArialMT', 'Arial', sans-serif;font-size:16px;">did it. He&apos;s</text><text x="411px" y="27.984px" style="font-family:'ArialMT', 'Arial', sans-serif;font-size:16px;">been acting very shady ever</text><text x="411px" y="44.508px" style="font-family:'ArialMT', 'Arial', sans-serif;font-size:16px;">since we got here. I&apos;ve never</text><text x="411px" y="61.031px" style="font-family:'ArialMT', 'Arial', sans-serif;font-size:16px;">seen him like this.</text></g><text x="96.22px" y="239.339px" style="font-family:'SegoeUI-Bold', 'Segoe UI', sans-serif;font-weight:700;font-size:16px;">Hildegaarde:</text></g><g transform="matrix(1,0,0,1,-313.498,248.097)"><text x="411px" y="11.461px" style="font-family:'ArialMT', 'Arial', sans-serif;font-size:16px;">I think that</text><text x="489.266px" y="11.461px" style="font-family:'Arial-BoldMT', 'Arial', sans-serif;font-weight:700;font-size:16px;fill:#f00;">Robert</text><text x="545.266px" y="11.461px" style="font-family:'ArialMT', 'Arial', sans-serif;font-size:16px;">did it. He&apos;s</text><text x="411px" y="27.984px" style="font-family:'ArialMT', 'Arial', sans-serif;font-size:16px;">been acting very shady ever</text><text x="411px" y="44.508px" style="font-family:'ArialMT', 'Arial', sans-serif;font-size:16px;">since we got here. I&apos;ve never</text><text x="411px" y="61.031px" style="font-family:'ArialMT', 'Arial', sans-serif;font-size:16px;">seen him like this.</text></g><text x="96.22px" y="239.339px" style="font-family:'SegoeUI-Bold', 'Segoe UI', sans-serif;font-weight:700;font-size:16px;">Hildegaarde:</text></g><g><g><g><rect x="13.75" y="125.6" width="70.275" height="70.013" style="fill:#999;"/><circle cx="48.887" cy="160.606" r="31.125" style="fill:#e6e6e6;"/><path d="M21.391,195.613l27.496,-26.011l27.497,26.011l-54.993,0Z" style="fill:#e6e6e6;"/></g><g transform="matrix(1,0,0,1,-313.498,150.798)"><text x="411px" y="11.461px" style="font-family:'ArialMT', 'Arial', sans-serif;font-size:16px;">I think that</text><text x="489.266px" y="11.461px" style="font-family:'Arial-BoldMT', 'Arial', sans-serif;font-weight:700;font-size:16px;fill:#f00;">Robert</text><text x="545.266px" y="11.461px" style="font-family:'ArialMT', 'Arial', sans-serif;font-size:16px;">did it. He&apos;s</text><text x="411px" y="27.984px" style="font-family:'ArialMT', 'Arial', sans-serif;font-size:16px;">been acting very shady ever</text><text x="411px" y="44.508px" style="font-family:'ArialMT', 'Arial', sans-serif;font-size:16px;">since we got here. I&apos;ve never</text><text x="411px" y="61.031px" style="font-family:'ArialMT', 'Arial', sans-serif;font-size:16px;">seen him like this.</text></g><text x="96.22px" y="142.04px" style="font-family:'SegoeUI-Bold', 'Segoe UI', sans-serif;font-weight:700;font-size:16px;">Hildegaarde:</text></g><g transform="matrix(1,0,0,1,-313.498,150.798)"><text x="411px" y="11.461px" style="font-family:'ArialMT', 'Arial', sans-serif;font-size:16px;">I think that</text><text x="489.266px" y="11.461px" style="font-family:'Arial-BoldMT', 'Arial', sans-serif;font-weight:700;font-size:16px;fill:#f00;">Robert</text><text x="545.266px" y="11.461px" style="font-family:'ArialMT', 'Arial', sans-serif;font-size:16px;">did it. He&apos;s</text><text x="411px" y="27.984px" style="font-family:'ArialMT', 'Arial', sans-serif;font-size:16px;">been acting very shady ever</text><text x="411px" y="44.508px" style="font-family:'ArialMT', 'Arial', sans-serif;font-size:16px;">since we got here. I&apos;ve never</text><text x="411px" y="61.031px" style="font-family:'ArialMT', 'Arial', sans-serif;font-size:16px;">seen him like this.</text></g><text x="96.22px" y="142.04px" style="font-family:'SegoeUI-Bold', 'Segoe UI', sans-serif;font-weight:700;font-size:16px;">Hildegaarde:</text></g><g><g><g><rect x="13.75" y="330.898" width="70.275" height="70.013" style="fill:#999;"/><circle cx="48.887" cy="365.905" r="31.125" style="fill:#e6e6e6;"/><path d="M21.391,400.911l27.496,-26.011l27.497,26.011l-54.993,0Z" style="fill:#e6e6e6;"/></g><g transform="matrix(1,0,0,1,-313.498,356.097)"><text x="411px" y="11.461px" style="font-family:'ArialMT', 'Arial', sans-serif;font-size:16px;">I think that</text><text x="489.266px" y="11.461px" style="font-family:'Arial-BoldMT', 'Arial', sans-serif;font-weight:700;font-size:16px;fill:#f00;">Robert</text><text x="545.266px" y="11.461px" style="font-family:'ArialMT', 'Arial', sans-serif;font-size:16px;">did it. He&apos;s</text><text x="411px" y="27.984px" style="font-family:'ArialMT', 'Arial', sans-serif;font-size:16px;">been acting very shady ever</text><text x="411px" y="44.508px" style="font-family:'ArialMT', 'Arial', sans-serif;font-size:16px;">since we got here. I&apos;ve never</text><text x="411px" y="61.031px" style="font-family:'ArialMT', 'Arial', sans-serif;font-size:16px;">seen him like this.</text></g><text x="96.22px" y="347.339px" style="font-family:'SegoeUI-Bold', 'Segoe UI', sans-serif;font-weight:700;font-size:16px;">Hildegaarde:</text></g><g transform="matrix(1,0,0,1,-313.498,356.097)"><text x="411px" y="11.461px" style="font-family:'ArialMT', 'Arial', sans-serif;font-size:16px;">I think that</text><text x="489.266px" y="11.461px" style="font-family:'Arial-BoldMT', 'Arial', sans-serif;font-weight:700;font-size:16px;fill:#f00;">Robert</text><text x="545.266px" y="11.461px" style="font-family:'ArialMT', 'Arial', sans-serif;font-size:16px;">did it. He&apos;s</text><text x="411px" y="27.984px" style="font-family:'ArialMT', 'Arial', sans-serif;font-size:16px;">been acting very shady ever</text><text x="411px" y="44.508px" style="font-family:'ArialMT', 'Arial', sans-serif;font-size:16px;">since we got here. I&apos;ve never</text><text x="411px" y="61.031px" style="font-family:'ArialMT', 'Arial', sans-serif;font-size:16px;">seen him like this.</text></g><text x="96.22px" y="347.339px" style="font-family:'SegoeUI-Bold', 'Segoe UI', sans-serif;font-weight:700;font-size:16px;">Hildegaarde:</text></g><g><g><g><rect x="13.75" y="428.898" width="70.275" height="70.013" style="fill:#999;"/><circle cx="48.887" cy="463.905" r="31.125" style="fill:#e6e6e6;"/><path d="M21.391,498.911l27.496,-26.011l27.497,26.011l-54.993,0Z" style="fill:#e6e6e6;"/></g><g transform="matrix(1,0,0,1,-313.498,454.097)"><text x="411px" y="11.461px" style="font-family:'ArialMT', 'Arial', sans-serif;font-size:16px;">I think that</text><text x="489.266px" y="11.461px" style="font-family:'Arial-BoldMT', 'Arial', sans-serif;font-weight:700;font-size:16px;fill:#f00;">Robert</text><text x="545.266px" y="11.461px" style="font-family:'ArialMT', 'Arial', sans-serif;font-size:16px;">did it. He&apos;s</text><text x="411px" y="27.984px" style="font-family:'ArialMT', 'Arial', sans-serif;font-size:16px;">been acting very shady ever</text><text x="411px" y="44.508px" style="font-family:'ArialMT', 'Arial', sans-serif;font-size:16px;">since we got here. I&apos;ve never</text><text x="411px" y="61.031px" style="font-family:'ArialMT', 'Arial', sans-serif;font-size:16px;">seen him like this.</text></g><text x="96.22px" y="445.339px" style="font-family:'SegoeUI-Bold', 'Segoe UI', sans-serif;font-weight:700;font-size:16px;">Hildegaarde:</text></g><g transform="matrix(1,0,0,1,-313.498,454.097)"><text x="411px" y="11.461px" style="font-family:'ArialMT', 'Arial', sans-serif;font-size:16px;">I think that</text><text x="489.266px" y="11.461px" style="font-family:'Arial-BoldMT', 'Arial', sans-serif;font-weight:700;font-size:16px;fill:#f00;">Robert</text><text x="545.266px" y="11.461px" style="font-family:'ArialMT', 'Arial', sans-serif;font-size:16px;">did it. He&apos;s</text><text x="411px" y="27.984px" style="font-family:'ArialMT', 'Arial', sans-serif;font-size:16px;">been acting very shady ever</text><text x="411px" y="44.508px" style="font-family:'ArialMT', 'Arial', sans-serif;font-size:16px;">since we got here. I&apos;ve never</text><text x="411px" y="61.031px" style="font-family:'ArialMT', 'Arial', sans-serif;font-size:16px;">seen him like this.</text></g><text x="96.22px" y="445.339px" style="font-family:'SegoeUI-Bold', 'Segoe UI', sans-serif;font-weight:700;font-size:16px;">Hildegaarde:</text></g><rect x="0" y="490.147" width="375" height="96.853" style="fill:url(#_Linear2);"/><rect x="334.502" y="17.6" width="28.081" height="559.1" style="fill:#8c8c8c;"/><rect x="334.5" y="17.6" width="28.083" height="80.087"/></g><defs><linearGradient id="_Linear2" x1="0" y1="0" x2="1" y2="0" gradientUnits="userSpaceOnUse" gradientTransform="matrix(5.29984e-15,-86.5529,86.5529,5.29984e-15,173.126,576.699)"><stop offset="0" style="stop-color:#fff;stop-opacity:1"/><stop offset="1" style="stop-color:#fff;stop-opacity:0"/></linearGradient></defs></svg>