<?xml version="1.0" encoding="UTF-8" standalone="no"?><!DOCTYPE svg PUBLIC "-//W3C//DTD SVG 1.1//EN" "http://www.w3.org/Graphics/SVG/1.1/DTD/svg11.dtd"><svg width="100%" height="100%" viewBox="0 0 1165 667" version="1.1" xmlns="http://www.w3.org/2000/svg" xmlns:xlink="http://www.w3.org/1999/xlink" xml:space="preserve" xmlns:serif="http://www.serif.com/" style="fill-rule:evenodd;clip-rule:evenodd;stroke-linejoin:round;stroke-miterlimit:1.41421;"><rect id="main-screen" x="0" y="0" width="375" height="667" style="fill:none;"/><clipPath id="_clip1"><rect id="main-screen1" serif:id="main-screen" x="0" y="0" width="375" height="667"/></clipPath><g clip-path="url(#_clip1)"><g><rect x="0" y="587" width="375" height="30" style="fill:#f2f2f2;"/><rect x="0" y="617" width="115.719" height="50" style="fill:#8c8c8c;"/><text x="26.211px" y="645.965px" style="font-family:'SegoeUI', 'Segoe UI', sans-serif;font-size:16px;fill:#fff;">View Log</text><rect x="115.719" y="617" width="259.281" height="50" style="fill:#8c8c8c;"/><rect x="115.719" y="617" width="186.249" height="50" style="fill:#595959;"/><text x="206.793px" y="647.828px" style="font-family:'SegoeUI', 'Segoe UI', sans-serif;font-size:16px;fill:#fff;">End R<tspan x="246.848px 256.223px " y="647.828px 647.828px ">ou</tspan>nd</text><rect x="113.777" y="617" width="3.884" height="50" style="fill:#fff;"/></g><text x="9.68px" y="605.855px" style="font-family:'SegoeUI', 'Segoe UI', sans-serif;font-size:16px;">T<tspan x="16.266px 24.406px " y="605.855px 605.855px ">ap</tspan> on an NPC to<tspan x="132.602px " y="605.855px "> </tspan>talk to<tspan x="181.555px " y="605.855px "> </tspan>them</text><g id="NPC"><rect x="0" y="0" width="93.75" height="117.4" style="fill:#d9d9d9;"/><rect x="0" y="0" width="93.75" height="93.4" style="fill:#999;"/><text x="8.908px" y="109.72px" style="font-family:'SegoeUI', 'Segoe UI', sans-serif;font-size:14px;">Hildegaard<tspan x="76.796px " y="109.72px ">e</tspan></text><circle cx="46.875" cy="46.7" r="41.522" style="fill:#e6e6e6;"/><path d="M10.193,93.4l36.682,-34.7l36.682,34.7l-73.364,0Z" style="fill:#e6e6e6;"/></g><g id="NPC1" serif:id="NPC"><rect x="0" y="117.4" width="93.75" height="117.4" style="fill:#d9d9d9;"/><rect x="0" y="117.4" width="93.75" height="93.4" style="fill:#999;"/><text x="8.908px" y="227.12px" style="font-family:'SegoeUI', 'Segoe UI', sans-serif;font-size:14px;">Hildegaard<tspan x="76.796px " y="227.12px ">e</tspan></text><circle cx="46.875" cy="164.1" r="41.522" style="fill:#e6e6e6;"/><path d="M10.193,210.8l36.682,-34.7l36.682,34.7l-73.364,0Z" style="fill:#e6e6e6;"/></g><g id="NPC2" serif:id="NPC"><rect x="0" y="234.8" width="93.75" height="117.4" style="fill:#d9d9d9;"/><rect x="0" y="234.8" width="93.75" height="93.4" style="fill:#999;"/><text x="8.908px" y="344.52px" style="font-family:'SegoeUI', 'Segoe UI', sans-serif;font-size:14px;">Hildegaard<tspan x="76.796px " y="344.52px ">e</tspan></text><circle cx="46.875" cy="281.5" r="41.522" style="fill:#e6e6e6;"/><path d="M10.193,328.2l36.682,-34.7l36.682,34.7l-73.364,0Z" style="fill:#e6e6e6;"/></g><g id="NPC3" serif:id="NPC"><rect x="0" y="352.2" width="93.75" height="117.4" style="fill:#d9d9d9;"/><rect x="0" y="352.2" width="93.75" height="93.4" style="fill:#999;"/><text x="8.908px" y="461.92px" style="font-family:'SegoeUI', 'Segoe UI', sans-serif;font-size:14px;">Hildegaard<tspan x="76.796px " y="461.92px ">e</tspan></text><circle cx="46.875" cy="398.9" r="41.522" style="fill:#e6e6e6;"/><path d="M10.193,445.6l36.682,-34.7l36.682,34.7l-73.364,0Z" style="fill:#e6e6e6;"/></g><g id="NPC4" serif:id="NPC"><rect x="0" y="469.6" width="93.75" height="117.4" style="fill:#d9d9d9;"/><rect x="0" y="469.6" width="93.75" height="93.4" style="fill:#999;"/><text x="8.908px" y="579.32px" style="font-family:'SegoeUI', 'Segoe UI', sans-serif;font-size:14px;">Hildegaard<tspan x="76.796px " y="579.32px ">e</tspan></text><circle cx="46.875" cy="516.3" r="41.522" style="fill:#e6e6e6;"/><path d="M10.193,563l36.682,-34.7l36.682,34.7l-73.364,0Z" style="fill:#e6e6e6;"/></g><g id="NPC5" serif:id="NPC"><rect x="93.75" y="0" width="93.75" height="117.4" style="fill:#d9d9d9;"/><rect x="93.75" y="0" width="93.75" height="93.4" style="fill:#999;"/><text x="102.658px" y="109.72px" style="font-family:'SegoeUI', 'Segoe UI', sans-serif;font-size:14px;">Hildegaard<tspan x="170.546px " y="109.72px ">e</tspan></text><circle cx="140.625" cy="46.7" r="41.522" style="fill:#e6e6e6;"/><path d="M103.943,93.4l36.682,-34.7l36.682,34.7l-73.364,0Z" style="fill:#e6e6e6;"/></g><g id="NPC6" serif:id="NPC"><rect x="93.75" y="117.4" width="93.75" height="117.4" style="fill:#d9d9d9;"/><rect x="93.75" y="117.4" width="93.75" height="93.4" style="fill:#999;"/><text x="102.658px" y="227.12px" style="font-family:'SegoeUI', 'Segoe UI', sans-serif;font-size:14px;">Hildegaard<tspan x="170.546px " y="227.12px ">e</tspan></text><circle cx="140.625" cy="164.1" r="41.522" style="fill:#e6e6e6;"/><path d="M103.943,210.8l36.682,-34.7l36.682,34.7l-73.364,0Z" style="fill:#e6e6e6;"/></g><g id="NPC7" serif:id="NPC"><rect x="93.75" y="234.8" width="93.75" height="117.4" style="fill:#d9d9d9;"/><rect x="93.75" y="234.8" width="93.75" height="93.4" style="fill:#999;"/><text x="102.658px" y="344.52px" style="font-family:'SegoeUI', 'Segoe UI', sans-serif;font-size:14px;">Hildegaard<tspan x="170.546px " y="344.52px ">e</tspan></text><circle cx="140.625" cy="281.5" r="41.522" style="fill:#e6e6e6;"/><path d="M103.943,328.2l36.682,-34.7l36.682,34.7l-73.364,0Z" style="fill:#e6e6e6;"/></g><g id="NPC8" serif:id="NPC"><rect x="93.75" y="352.2" width="93.75" height="117.4" style="fill:#d9d9d9;"/><rect x="93.75" y="352.2" width="93.75" height="93.4" style="fill:#999;"/><text x="102.658px" y="461.92px" style="font-family:'SegoeUI', 'Segoe UI', sans-serif;font-size:14px;">Hildegaard<tspan x="170.546px " y="461.92px ">e</tspan></text><circle cx="140.625" cy="398.9" r="41.522" style="fill:#e6e6e6;"/><path d="M103.943,445.6l36.682,-34.7l36.682,34.7l-73.364,0Z" style="fill:#e6e6e6;"/></g><g id="NPC9" serif:id="NPC"><rect x="93.75" y="469.6" width="93.75" height="117.4" style="fill:#d9d9d9;"/><rect x="93.75" y="469.6" width="93.75" height="93.4" style="fill:#999;"/><text x="102.658px" y="579.32px" style="font-family:'SegoeUI', 'Segoe UI', sans-serif;font-size:14px;">Hildegaard<tspan x="170.546px " y="579.32px ">e</tspan></text><circle cx="140.625" cy="516.3" r="41.522" style="fill:#e6e6e6;"/><path d="M103.943,563l36.682,-34.7l36.682,34.7l-73.364,0Z" style="fill:#e6e6e6;"/></g><g id="NPC10" serif:id="NPC"><rect x="187.5" y="0" width="93.75" height="117.4" style="fill:#d9d9d9;"/><rect x="187.5" y="0" width="93.75" height="93.4" style="fill:#999;"/><text x="196.408px" y="109.72px" style="font-family:'SegoeUI', 'Segoe UI', sans-serif;font-size:14px;">Hildegaard<tspan x="264.296px " y="109.72px ">e</tspan></text><circle cx="234.375" cy="46.7" r="41.522" style="fill:#e6e6e6;"/><path d="M197.693,93.4l36.682,-34.7l36.682,34.7l-73.364,0Z" style="fill:#e6e6e6;"/></g><g id="NPC11" serif:id="NPC"><rect x="187.5" y="117.4" width="93.75" height="117.4" style="fill:#d9d9d9;"/><rect x="187.5" y="117.4" width="93.75" height="93.4" style="fill:#999;"/><text x="196.408px" y="227.12px" style="font-family:'SegoeUI', 'Segoe UI', sans-serif;font-size:14px;">Hildegaard<tspan x="264.296px " y="227.12px ">e</tspan></text><circle cx="234.375" cy="164.1" r="41.522" style="fill:#e6e6e6;"/><path d="M197.693,210.8l36.682,-34.7l36.682,34.7l-73.364,0Z" style="fill:#e6e6e6;"/></g><g id="NPC12" serif:id="NPC"><rect x="187.5" y="234.8" width="93.75" height="117.4" style="fill:#d9d9d9;"/><rect x="187.5" y="234.8" width="93.75" height="93.4" style="fill:#999;"/><text x="196.408px" y="344.52px" style="font-family:'SegoeUI', 'Segoe UI', sans-serif;font-size:14px;">Hildegaard<tspan x="264.296px " y="344.52px ">e</tspan></text><circle cx="234.375" cy="281.5" r="41.522" style="fill:#e6e6e6;"/><path d="M197.693,328.2l36.682,-34.7l36.682,34.7l-73.364,0Z" style="fill:#e6e6e6;"/></g><g id="NPC13" serif:id="NPC"><rect x="187.5" y="352.2" width="93.75" height="117.4" style="fill:#d9d9d9;"/><rect x="187.5" y="352.2" width="93.75" height="93.4" style="fill:#999;"/><text x="196.408px" y="461.92px" style="font-family:'SegoeUI', 'Segoe UI', sans-serif;font-size:14px;">Hildegaard<tspan x="264.296px " y="461.92px ">e</tspan></text><circle cx="234.375" cy="398.9" r="41.522" style="fill:#e6e6e6;"/><path d="M197.693,445.6l36.682,-34.7l36.682,34.7l-73.364,0Z" style="fill:#e6e6e6;"/></g><g id="NPC14" serif:id="NPC"><rect x="187.5" y="469.6" width="93.75" height="117.4" style="fill:#d9d9d9;"/><rect x="187.5" y="469.6" width="93.75" height="93.4" style="fill:#999;"/><text x="196.408px" y="579.32px" style="font-family:'SegoeUI', 'Segoe UI', sans-serif;font-size:14px;">Hildegaard<tspan x="264.296px " y="579.32px ">e</tspan></text><circle cx="234.375" cy="516.3" r="41.522" style="fill:#e6e6e6;"/><path d="M197.693,563l36.682,-34.7l36.682,34.7l-73.364,0Z" style="fill:#e6e6e6;"/></g><g id="NPC15" serif:id="NPC"><rect x="281.25" y="0" width="93.75" height="117.4" style="fill:#d9d9d9;"/><rect x="281.25" y="0" width="93.75" height="93.4" style="fill:#999;"/><text x="290.158px" y="109.72px" style="font-family:'SegoeUI', 'Segoe UI', sans-serif;font-size:14px;">Hildegaard<tspan x="358.046px " y="109.72px ">e</tspan></text><circle cx="328.125" cy="46.7" r="41.522" style="fill:#e6e6e6;"/><path d="M291.443,93.4l36.682,-34.7l36.682,34.7l-73.364,0Z" style="fill:#e6e6e6;"/></g><g id="NPC16" serif:id="NPC"><rect x="281.25" y="117.4" width="93.75" height="117.4" style="fill:#d9d9d9;"/><rect x="281.25" y="117.4" width="93.75" height="93.4" style="fill:#999;"/><text x="290.158px" y="227.12px" style="font-family:'SegoeUI', 'Segoe UI', sans-serif;font-size:14px;">Hildegaard<tspan x="358.046px " y="227.12px ">e</tspan></text><circle cx="328.125" cy="164.1" r="41.522" style="fill:#e6e6e6;"/><path d="M291.443,210.8l36.682,-34.7l36.682,34.7l-73.364,0Z" style="fill:#e6e6e6;"/></g><g id="NPC17" serif:id="NPC"><rect x="281.25" y="234.8" width="93.75" height="117.4" style="fill:#d9d9d9;"/><rect x="281.25" y="234.8" width="93.75" height="93.4" style="fill:#999;"/><text x="290.158px" y="344.52px" style="font-family:'SegoeUI', 'Segoe UI', sans-serif;font-size:14px;">Hildegaard<tspan x="358.046px " y="344.52px ">e</tspan></text><circle cx="328.125" cy="281.5" r="41.522" style="fill:#e6e6e6;"/><path d="M291.443,328.2l36.682,-34.7l36.682,34.7l-73.364,0Z" style="fill:#e6e6e6;"/></g><g id="NPC18" serif:id="NPC"><rect x="281.25" y="352.2" width="93.75" height="117.4" style="fill:#d9d9d9;"/><rect x="281.25" y="352.2" width="93.75" height="93.4" style="fill:#999;"/><text x="290.158px" y="461.92px" style="font-family:'SegoeUI', 'Segoe UI', sans-serif;font-size:14px;">Hildegaard<tspan x="358.046px " y="461.92px ">e</tspan></text><circle cx="328.125" cy="398.9" r="41.522" style="fill:#e6e6e6;"/><path d="M291.443,445.6l36.682,-34.7l36.682,34.7l-73.364,0Z" style="fill:#e6e6e6;"/></g><g id="NPC19" serif:id="NPC"><rect x="281.25" y="469.6" width="93.75" height="117.4" style="fill:#d9d9d9;"/><rect x="281.25" y="469.6" width="93.75" height="93.4" style="fill:#999;"/><text x="290.158px" y="579.32px" style="font-family:'SegoeUI', 'Segoe UI', sans-serif;font-size:14px;">Hildegaard<tspan x="358.046px " y="579.32px ">e</tspan></text><circle cx="328.125" cy="516.3" r="41.522" style="fill:#e6e6e6;"/><path d="M291.443,563l36.682,-34.7l36.682,34.7l-73.364,0Z" style="fill:#e6e6e6;"/></g><rect x="93.342" y="351.972" width="93.333" height="117.628" style="fill-opacity:0.4;"/><circle cx="140.009" cy="398.786" r="30.88" style="fill:#fff;"/><text x="123.735px" y="402.386px" style="font-family:'SegoeUI', 'Segoe UI', sans-serif;font-size:12px;">(dead)</text></g><rect id="interaction-screen" x="395" y="0" width="375" height="667" style="fill:none;"/><clipPath id="_clip2"><rect x="395" y="0" width="375" height="667"/></clipPath><g clip-path="url(#_clip2)"><g><rect x="395" y="587" width="375" height="30" style="fill:#f2f2f2;"/><rect x="395" y="617" width="115.719" height="50" style="fill:#8c8c8c;"/><text x="421.211px" y="645.965px" style="font-family:'SegoeUI', 'Segoe UI', sans-serif;font-size:16px;fill:#fff;">View Log</text><rect x="510.719" y="617" width="259.281" height="50" style="fill:#8c8c8c;"/><rect x="510.719" y="617" width="186.249" height="50" style="fill:#595959;"/><text x="601.793px" y="647.828px" style="font-family:'SegoeUI', 'Segoe UI', sans-serif;font-size:16px;fill:#fff;">End R<tspan x="641.848px 651.223px " y="647.828px 647.828px ">ou</tspan>nd</text><rect x="508.777" y="617" width="3.884" height="50" style="fill:#fff;"/></g><text x="404.68px" y="605.855px" style="font-family:'SegoeUI', 'Segoe UI', sans-serif;font-size:16px;">T<tspan x="411.266px 419.406px " y="605.855px 605.855px ">al</tspan>k to<tspan x="450.414px " y="605.855px "> </tspan>Hildegaard<tspan x="532.383px " y="605.855px ">e</tspan> to<tspan x="559.93px " y="605.855px "> </tspan>ﬁnd out what she knows.</text><rect x="395" y="0" width="375" height="587"/><rect x="395" y="196.1" width="281.25" height="390.9" style="fill:#fff;"/><rect x="395" y="0" width="375" height="137.095" style="fill:#fff;"/><g transform="matrix(1,0,0,1,-5.99997,9.98084)"><text x="411px" y="11.461px" style="font-family:'ArialMT', 'Arial', sans-serif;font-size:16px;">I think that</text><text x="489.266px" y="11.461px" style="font-family:'Arial-BoldMT', 'Arial', sans-serif;font-weight:700;font-size:16px;fill:#f00;">Robert</text><text x="545.266px" y="11.461px" style="font-family:'ArialMT', 'Arial', sans-serif;font-size:16px;">did it. He&apos;s been acting very</text><text x="411px" y="27.984px" style="font-family:'ArialMT', 'Arial', sans-serif;font-size:16px;">shady ever since we got here. I&apos;ve never seen</text><text x="411px" y="44.508px" style="font-family:'ArialMT', 'Arial', sans-serif;font-size:16px;">him like this.</text></g><g><rect x="409.906" y="216.148" width="246.3" height="50" style="fill:#737373;"/><text x="501.388px" y="245.797px" style="font-family:'SegoeUI', 'Segoe UI', sans-serif;font-size:16px;fill:#fff;">T<tspan x="507.974px 516.115px " y="245.797px 245.797px ">al</tspan>k (0/4)</text></g><g><rect x="409.906" y="397" width="246.3" height="50" style="fill:#737373;"/><text x="511.127px" y="426.648px" style="font-family:'SegoeUI', 'Segoe UI', sans-serif;font-size:16px;fill:#fff;">Flatte<tspan x="550.166px " y="426.648px ">r</tspan></text></g><g><rect x="409.906" y="276.148" width="246.3" height="50" style="fill:#737373;"/><text x="453.681px" y="305.797px" style="font-family:'SegoeUI', 'Segoe UI', sans-serif;font-size:16px;fill:#fff;">Who are<tspan x="513.509px " y="305.797px "> </tspan>you blaming?</text></g><g><rect x="409.906" y="457" width="246.3" height="50" style="fill:#737373;"/><text x="466.076px" y="486.648px" style="font-family:'SegoeUI', 'Segoe UI', sans-serif;font-size:16px;fill:#fff;">Connand At<tspan x="550.209px 555.63px 563.998px " y="486.648px 486.648px 486.648px ">ten</tspan>tion</text></g><g><rect x="409.906" y="336.148" width="246.3" height="50" style="fill:#737373;"/><text x="477.834px" y="365.797px" style="font-family:'SegoeUI', 'Segoe UI', sans-serif;font-size:16px;fill:#fff;">Ask About Luna</text></g><g><rect x="409.906" y="517" width="246.3" height="50" style="fill:#737373;"/><text x="514.271px" y="546.648px" style="font-family:'SegoeUI', 'Segoe UI', sans-serif;font-size:16px;fill:#fff;">Close</text></g><g><g id="NPC20" serif:id="NPC"><rect x="676.25" y="469.6" width="93.75" height="117.4" style="fill:#d9d9d9;"/><rect x="676.25" y="469.6" width="93.75" height="93.4" style="fill:#999;"/><text x="685.158px" y="579.32px" style="font-family:'SegoeUI', 'Segoe UI', sans-serif;font-size:14px;">Hildegaard<tspan x="753.046px " y="579.32px ">e</tspan></text><circle cx="723.125" cy="516.3" r="41.522" style="fill:#e6e6e6;"/><path d="M686.443,563l36.682,-34.7l36.682,34.7l-73.364,0Z" style="fill:#e6e6e6;"/></g><circle cx="699.342" cy="449.802" r="9.38" style="fill:#fff;"/><circle cx="723.092" cy="449.802" r="9.38" style="fill:#fff;"/><circle cx="747.592" cy="449.802" r="9.38" style="fill:#fff;"/><text x="705.311px" y="433.097px" style="font-family:'SegoeUI', 'Segoe UI', sans-serif;font-size:12px;fill:#fff;">(icons)</text></g></g><rect id="log-screen" x="790" y="0" width="375" height="667" style="fill:none;"/><clipPath id="_clip3"><rect x="790" y="0" width="375" height="667"/></clipPath><g clip-path="url(#_clip3)"><g><g><g><rect x="802.75" y="531.898" width="70.275" height="70.013" style="fill:#999;"/><circle cx="837.887" cy="566.905" r="31.125" style="fill:#e6e6e6;"/><path d="M810.391,601.911l27.496,-26.011l27.497,26.011l-54.993,0Z" style="fill:#e6e6e6;"/></g><g transform="matrix(1,0,0,1,475.502,557.097)"><text x="411px" y="11.461px" style="font-family:'ArialMT', 'Arial', sans-serif;font-size:16px;">I think that</text><text x="489.266px" y="11.461px" style="font-family:'Arial-BoldMT', 'Arial', sans-serif;font-weight:700;font-size:16px;fill:#f00;">Robert</text><text x="545.266px" y="11.461px" style="font-family:'ArialMT', 'Arial', sans-serif;font-size:16px;">did it. He&apos;s</text><text x="411px" y="27.984px" style="font-family:'ArialMT', 'Arial', sans-serif;font-size:16px;">been acting very shady ever</text><text x="411px" y="44.508px" style="font-family:'ArialMT', 'Arial', sans-serif;font-size:16px;">since we got here. I&apos;ve never</text><text x="411px" y="61.031px" style="font-family:'ArialMT', 'Arial', sans-serif;font-size:16px;">seen him like this.</text></g><text x="885.22px" y="548.339px" style="font-family:'SegoeUI-Bold', 'Segoe UI', sans-serif;font-weight:700;font-size:16px;">Hildegaarde:</text></g><g transform="matrix(1,0,0,1,475.502,557.097)"><text x="411px" y="11.461px" style="font-family:'ArialMT', 'Arial', sans-serif;font-size:16px;">I think that</text><text x="489.266px" y="11.461px" style="font-family:'Arial-BoldMT', 'Arial', sans-serif;font-weight:700;font-size:16px;fill:#f00;">Robert</text><text x="545.266px" y="11.461px" style="font-family:'ArialMT', 'Arial', sans-serif;font-size:16px;">did it. He&apos;s</text><text x="411px" y="27.984px" style="font-family:'ArialMT', 'Arial', sans-serif;font-size:16px;">been acting very shady ever</text><text x="411px" y="44.508px" style="font-family:'ArialMT', 'Arial', sans-serif;font-size:16px;">since we got here. I&apos;ve never</text><text x="411px" y="61.031px" style="font-family:'ArialMT', 'Arial', sans-serif;font-size:16px;">seen him like this.</text></g><text x="885.22px" y="548.339px" style="font-family:'SegoeUI-Bold', 'Segoe UI', sans-serif;font-weight:700;font-size:16px;">Hildegaarde:</text></g><g><rect x="790" y="587" width="375" height="30" style="fill:#f2f2f2;"/><rect x="790" y="617" width="115.719" height="50" style="fill:#8c8c8c;"/><text x="816.211px" y="645.965px" style="font-family:'SegoeUI', 'Segoe UI', sans-serif;font-size:16px;fill:#fff;">View Log</text><rect x="905.719" y="617" width="259.281" height="50" style="fill:#8c8c8c;"/><rect x="905.719" y="617" width="186.249" height="50" style="fill:#595959;"/><text x="996.793px" y="647.828px" style="font-family:'SegoeUI', 'Segoe UI', sans-serif;font-size:16px;fill:#fff;">End R<tspan x="1036.85px 1046.22px " y="647.828px 647.828px ">ou</tspan>nd</text><rect x="903.777" y="617" width="3.884" height="50" style="fill:#fff;"/></g><text x="799.68px" y="605.855px" style="font-family:'SegoeUI', 'Segoe UI', sans-serif;font-size:16px;">Look over the clues yo<tspan x="957.852px 966.906px 970.586px " y="605.855px 605.855px 605.855px ">u&apos;v</tspan>e uncove<tspan x="1041.91px 1047.47px 1055.84px " y="605.855px 605.855px 605.855px ">red</tspan>.</text><rect x="807.026" y="626.817" width="81.667" height="30.366" style="fill:#8c8c8c;"/><text x="813.926px" y="645.965px" style="font-family:'SegoeUI', 'Segoe UI', sans-serif;font-size:16px;fill:#fff;">Close Log</text><g><rect x="803.75" y="17.6" width="70.275" height="70.013" style="fill:#999;"/><circle cx="838.887" cy="52.606" r="31.125" style="fill:#e6e6e6;"/><path d="M811.391,87.613l27.496,-26.011l27.497,26.011l-54.993,0Z" style="fill:#e6e6e6;"/></g><g><g><g><rect x="803.75" y="17.6" width="70.275" height="70.013" style="fill:#999;"/><circle cx="838.887" cy="52.606" r="31.125" style="fill:#e6e6e6;"/><path d="M811.391,87.613l27.496,-26.011l27.497,26.011l-54.993,0Z" style="fill:#e6e6e6;"/></g><g transform="matrix(1,0,0,1,476.502,42.7983)"><text x="411px" y="11.461px" style="font-family:'ArialMT', 'Arial', sans-serif;font-size:16px;">I think that</text><text x="489.266px" y="11.461px" style="font-family:'Arial-BoldMT', 'Arial', sans-serif;font-weight:700;font-size:16px;fill:#f00;">Robert</text><text x="545.266px" y="11.461px" style="font-family:'ArialMT', 'Arial', sans-serif;font-size:16px;">did it. He&apos;s</text><text x="411px" y="27.984px" style="font-family:'ArialMT', 'Arial', sans-serif;font-size:16px;">been acting very shady ever</text><text x="411px" y="44.508px" style="font-family:'ArialMT', 'Arial', sans-serif;font-size:16px;">since we got here. I&apos;ve never</text><text x="411px" y="61.031px" style="font-family:'ArialMT', 'Arial', sans-serif;font-size:16px;">seen him like this.</text></g><text x="886.22px" y="34.04px" style="font-family:'SegoeUI-Bold', 'Segoe UI', sans-serif;font-weight:700;font-size:16px;">Hildegaarde:</text></g><g transform="matrix(1,0,0,1,476.502,42.7983)"><text x="411px" y="11.461px" style="font-family:'ArialMT', 'Arial', sans-serif;font-size:16px;">I think that</text><text x="489.266px" y="11.461px" style="font-family:'Arial-BoldMT', 'Arial', sans-serif;font-weight:700;font-size:16px;fill:#f00;">Robert</text><text x="545.266px" y="11.461px" style="font-family:'ArialMT', 'Arial', sans-serif;font-size:16px;">did it. He&apos;s</text><text x="411px" y="27.984px" style="font-family:'ArialMT', 'Arial', sans-serif;font-size:16px;">been acting very shady ever</text><text x="411px" y="44.508px" style="font-family:'ArialMT', 'Arial', sans-serif;font-size:16px;">since we got here. I&apos;ve never</text><text x="411px" y="61.031px" style="font-family:'ArialMT', 'Arial', sans-serif;font-size:16px;">seen him like this.</text></g><text x="886.22px" y="34.04px" style="font-family:'SegoeUI-Bold', 'Segoe UI', sans-serif;font-weight:700;font-size:16px;">Hildegaarde:</text></g><g><g><g><rect x="803.75" y="222.898" width="70.275" height="70.013" style="fill:#999;"/><circle cx="838.887" cy="257.905" r="31.125" style="fill:#e6e6e6;"/><path d="M811.391,292.911l27.496,-26.011l27.497,26.011l-54.993,0Z" style="fill:#e6e6e6;"/></g><g transform="matrix(1,0,0,1,476.502,248.097)"><text x="411px" y="11.461px" style="font-family:'ArialMT', 'Arial', sans-serif;font-size:16px;">I think that</text><text x="489.266px" y="11.461px" style="font-family:'Arial-BoldMT', 'Arial', sans-serif;font-weight:700;font-size:16px;fill:#f00;">Robert</text><text x="545.266px" y="11.461px" style="font-family:'ArialMT', 'Arial', sans-serif;font-size:16px;">did it. He&apos;s</text><text x="411px" y="27.984px" style="font-family:'ArialMT', 'Arial', sans-serif;font-size:16px;">been acting very shady ever</text><text x="411px" y="44.508px" style="font-family:'ArialMT', 'Arial', sans-serif;font-size:16px;">since we got here. I&apos;ve never</text><text x="411px" y="61.031px" style="font-family:'ArialMT', 'Arial', sans-serif;font-size:16px;">seen him like this.</text></g><text x="886.22px" y="239.339px" style="font-family:'SegoeUI-Bold', 'Segoe UI', sans-serif;font-weight:700;font-size:16px;">Hildegaarde:</text></g><g transform="matrix(1,0,0,1,476.502,248.097)"><text x="411px" y="11.461px" style="font-family:'ArialMT', 'Arial', sans-serif;font-size:16px;">I think that</text><text x="489.266px" y="11.461px" style="font-family:'Arial-BoldMT', 'Arial', sans-serif;font-weight:700;font-size:16px;fill:#f00;">Robert</text><text x="545.266px" y="11.461px" style="font-family:'ArialMT', 'Arial', sans-serif;font-size:16px;">did it. He&apos;s</text><text x="411px" y="27.984px" style="font-family:'ArialMT', 'Arial', sans-serif;font-size:16px;">been acting very shady ever</text><text x="411px" y="44.508px" style="font-family:'ArialMT', 'Arial', sans-serif;font-size:16px;">since we got here. I&apos;ve never</text><text x="411px" y="61.031px" style="font-family:'ArialMT', 'Arial', sans-serif;font-size:16px;">seen him like this.</text></g><text x="886.22px" y="239.339px" style="font-family:'SegoeUI-Bold', 'Segoe UI', sans-serif;font-weight:700;font-size:16px;">Hildegaarde:</text></g><g><g><g><rect x="803.75" y="125.6" width="70.275" height="70.013" style="fill:#999;"/><circle cx="838.887" cy="160.606" r="31.125" style="fill:#e6e6e6;"/><path d="M811.391,195.613l27.496,-26.011l27.497,26.011l-54.993,0Z" style="fill:#e6e6e6;"/></g><g transform="matrix(1,0,0,1,476.502,150.798)"><text x="411px" y="11.461px" style="font-family:'ArialMT', 'Arial', sans-serif;font-size:16px;">I think that</text><text x="489.266px" y="11.461px" style="font-family:'Arial-BoldMT', 'Arial', sans-serif;font-weight:700;font-size:16px;fill:#f00;">Robert</text><text x="545.266px" y="11.461px" style="font-family:'ArialMT', 'Arial', sans-serif;font-size:16px;">did it. He&apos;s</text><text x="411px" y="27.984px" style="font-family:'ArialMT', 'Arial', sans-serif;font-size:16px;">been acting very shady ever</text><text x="411px" y="44.508px" style="font-family:'ArialMT', 'Arial', sans-serif;font-size:16px;">since we got here. I&apos;ve never</text><text x="411px" y="61.031px" style="font-family:'ArialMT', 'Arial', sans-serif;font-size:16px;">seen him like this.</text></g><text x="886.22px" y="142.04px" style="font-family:'SegoeUI-Bold', 'Segoe UI', sans-serif;font-weight:700;font-size:16px;">Hildegaarde:</text></g><g transform="matrix(1,0,0,1,476.502,150.798)"><text x="411px" y="11.461px" style="font-family:'ArialMT', 'Arial', sans-serif;font-size:16px;">I think that</text><text x="489.266px" y="11.461px" style="font-family:'Arial-BoldMT', 'Arial', sans-serif;font-weight:700;font-size:16px;fill:#f00;">Robert</text><text x="545.266px" y="11.461px" style="font-family:'ArialMT', 'Arial', sans-serif;font-size:16px;">did it. He&apos;s</text><text x="411px" y="27.984px" style="font-family:'ArialMT', 'Arial', sans-serif;font-size:16px;">been acting very shady ever</text><text x="411px" y="44.508px" style="font-family:'ArialMT', 'Arial', sans-serif;font-size:16px;">since we got here. I&apos;ve never</text><text x="411px" y="61.031px" style="font-family:'ArialMT', 'Arial', sans-serif;font-size:16px;">seen him like this.</text></g><text x="886.22px" y="142.04px" style="font-family:'SegoeUI-Bold', 'Segoe UI', sans-serif;font-weight:700;font-size:16px;">Hildegaarde:</text></g><g><g><g><rect x="803.75" y="330.898" width="70.275" height="70.013" style="fill:#999;"/><circle cx="838.887" cy="365.905" r="31.125" style="fill:#e6e6e6;"/><path d="M811.391,400.911l27.496,-26.011l27.497,26.011l-54.993,0Z" style="fill:#e6e6e6;"/></g><g transform="matrix(1,0,0,1,476.502,356.097)"><text x="411px" y="11.461px" style="font-family:'ArialMT', 'Arial', sans-serif;font-size:16px;">I think that</text><text x="489.266px" y="11.461px" style="font-family:'Arial-BoldMT', 'Arial', sans-serif;font-weight:700;font-size:16px;fill:#f00;">Robert</text><text x="545.266px" y="11.461px" style="font-family:'ArialMT', 'Arial', sans-serif;font-size:16px;">did it. He&apos;s</text><text x="411px" y="27.984px" style="font-family:'ArialMT', 'Arial', sans-serif;font-size:16px;">been acting very shady ever</text><text x="411px" y="44.508px" style="font-family:'ArialMT', 'Arial', sans-serif;font-size:16px;">since we got here. I&apos;ve never</text><text x="411px" y="61.031px" style="font-family:'ArialMT', 'Arial', sans-serif;font-size:16px;">seen him like this.</text></g><text x="886.22px" y="347.339px" style="font-family:'SegoeUI-Bold', 'Segoe UI', sans-serif;font-weight:700;font-size:16px;">Hildegaarde:</text></g><g transform="matrix(1,0,0,1,476.502,356.097)"><text x="411px" y="11.461px" style="font-family:'ArialMT', 'Arial', sans-serif;font-size:16px;">I think that</text><text x="489.266px" y="11.461px" style="font-family:'Arial-BoldMT', 'Arial', sans-serif;font-weight:700;font-size:16px;fill:#f00;">Robert</text><text x="545.266px" y="11.461px" style="font-family:'ArialMT', 'Arial', sans-serif;font-size:16px;">did it. He&apos;s</text><text x="411px" y="27.984px" style="font-family:'ArialMT', 'Arial', sans-serif;font-size:16px;">been acting very shady ever</text><text x="411px" y="44.508px" style="font-family:'ArialMT', 'Arial', sans-serif;font-size:16px;">since we got here. I&apos;ve never</text><text x="411px" y="61.031px" style="font-family:'ArialMT', 'Arial', sans-serif;font-size:16px;">seen him like this.</text></g><text x="886.22px" y="347.339px" style="font-family:'SegoeUI-Bold', 'Segoe UI', sans-serif;font-weight:700;font-size:16px;">Hildegaarde:</text></g><g><g><g><rect x="803.75" y="428.898" width="70.275" height="70.013" style="fill:#999;"/><circle cx="838.887" cy="463.905" r="31.125" style="fill:#e6e6e6;"/><path d="M811.391,498.911l27.496,-26.011l27.497,26.011l-54.993,0Z" style="fill:#e6e6e6;"/></g><g transform="matrix(1,0,0,1,476.502,454.097)"><text x="411px" y="11.461px" style="font-family:'ArialMT', 'Arial', sans-serif;font-size:16px;">I think that</text><text x="489.266px" y="11.461px" style="font-family:'Arial-BoldMT', 'Arial', sans-serif;font-weight:700;font-size:16px;fill:#f00;">Robert</text><text x="545.266px" y="11.461px" style="font-family:'ArialMT', 'Arial', sans-serif;font-size:16px;">did it. He&apos;s</text><text x="411px" y="27.984px" style="font-family:'ArialMT', 'Arial', sans-serif;font-size:16px;">been acting very shady ever</text><text x="411px" y="44.508px" style="font-family:'ArialMT', 'Arial', sans-serif;font-size:16px;">since we got here. I&apos;ve never</text><text x="411px" y="61.031px" style="font-family:'ArialMT', 'Arial', sans-serif;font-size:16px;">seen him like this.</text></g><text x="886.22px" y="445.339px" style="font-family:'SegoeUI-Bold', 'Segoe UI', sans-serif;font-weight:700;font-size:16px;">Hildegaarde:</text></g><g transform="matrix(1,0,0,1,476.502,454.097)"><text x="411px" y="11.461px" style="font-family:'ArialMT', 'Arial', sans-serif;font-size:16px;">I think that</text><text x="489.266px" y="11.461px" style="font-family:'Arial-BoldMT', 'Arial', sans-serif;font-weight:700;font-size:16px;fill:#f00;">Robert</text><text x="545.266px" y="11.461px" style="font-family:'ArialMT', 'Arial', sans-serif;font-size:16px;">did it. He&apos;s</text><text x="411px" y="27.984px" style="font-family:'ArialMT', 'Arial', sans-serif;font-size:16px;">been acting very shady ever</text><text x="411px" y="44.508px" style="font-family:'ArialMT', 'Arial', sans-serif;font-size:16px;">since we got here. I&apos;ve never</text><text x="411px" y="61.031px" style="font-family:'ArialMT', 'Arial', sans-serif;font-size:16px;">seen him like this.</text></g><text x="886.22px" y="445.339px" style="font-family:'SegoeUI-Bold', 'Segoe UI', sans-serif;font-weight:700;font-size:16px;">Hildegaarde:</text></g><rect x="790" y="490.147" width="375" height="96.853" style="fill:url(#_Linear4);"/><rect x="1124.5" y="17.6" width="28.081" height="559.1" style="fill:#8c8c8c;"/><rect x="1124.5" y="17.6" width="28.083" height="80.087"/></g><defs><linearGradient id="_Linear4" x1="0" y1="0" x2="1" y2="0" gradientUnits="userSpaceOnUse" gradientTransform="matrix(5.29984e-15,-86.5529,86.5529,5.29984e-15,963.126,576.699)"><stop offset="0" style="stop-color:#fff;stop-opacity:1"/><stop offset="1" style="stop-color:#fff;stop-opacity:0"/></linearGradient></defs></svg>